<svg xmlns="http://www.w3.org/2000/svg" width="1080" height="1080" viewBox="0 0 1080 1080" font-family="Arial, 'Helvetica Neue', Helvetica, sans-serif">
<defs>
  <pattern id="grid" width="72" height="72" patternUnits="userSpaceOnUse">
    <path d="M72 0H0V72" fill="none" stroke="#C7FF3E" stroke-width="1" stroke-opacity="0.05"/>
  </pattern>
  <radialGradient id="fade" cx="50%" cy="34%" r="75%">
    <stop offset="0%" stop-color="#fff" stop-opacity="1"/>
    <stop offset="100%" stop-color="#fff" stop-opacity="0"/>
  </radialGradient>
  <mask id="fademask"><rect width="1080" height="1080" fill="url(#fade)"/></mask>
  
</defs>
<rect width="1080" height="1080" fill="#0F1115"/>
<rect width="1080" height="1080" fill="url(#grid)" mask="url(#fademask)"/><g transform="translate(84,84) scale(1.0)">
  <path d="M4 8 L31 0 L58 8 L53 40 Q31 62 31 62 Q9 40 9 40 Z" fill="none" stroke="#C7FF3E" stroke-width="3.5"/>
  <circle cx="31" cy="30" r="7" fill="#C7FF3E"/>
</g><text x="166" y="118" font-size="34" font-weight="800" font-style="italic" letter-spacing="-1" fill="#F4F1EA">CNSPK</text><text x="168" y="142" font-family="'JetBrains Mono', 'Courier New', monospace" font-size="14" letter-spacing="3" fill="#6B7280">WHY WE CARE</text><rect x="849" y="88" width="147" height="46" rx="23" fill="#C7FF3E" fill-opacity="0.10" stroke="#C7FF3E" stroke-opacity="0.30" stroke-width="1.5"/><circle cx="875" cy="111" r="7" fill="#C7FF3E"/><text x="893" y="117" font-family="'JetBrains Mono', 'Courier New', monospace" font-size="17" letter-spacing="1" fill="#C7FF3E">JOIN US</text><line x1="84" y1="385" x2="120" y2="385" stroke="#C7FF3E" stroke-width="2"/><text x="134" y="392" font-family="'JetBrains Mono', 'Courier New', monospace" font-size="20" letter-spacing="2" fill="#C7FF3E">// FROM-LAHORE-TO-BRUSSELS</text><text x="84" y="500" font-size="96" font-weight="800" font-style="italic" letter-spacing="-2" fill="#F4F1EA">READ THE CVE.</text><text x="84" y="600" font-size="96" font-weight="800" font-style="italic" letter-spacing="-2" fill="#C7FF3E">DRINK THE CHAI.</text><text x="84" y="770" font-size="27" fill="#E8E3D6">Sovereign, open, interoperable infrastructure is exactly</text><text x="84" y="810" font-size="27" fill="#E8E3D6">what we build and break in this chapter. The world is</text><text x="84" y="850" font-size="27" fill="#E8E3D6">catching up. Come build it with us.</text><line x1="84" y1="958" x2="996" y2="958" stroke="#2A2E37" stroke-width="1"/><text x="84" y="992" font-family="'JetBrains Mono', 'Courier New', monospace" font-size="20" fill="#F4F1EA">cloudnativesecurity.pk/join</text><text x="996" y="992" font-family="'JetBrains Mono', 'Courier New', monospace" font-size="17" text-anchor="end" fill="#6B7280">@cloudnativesecuritypk</text></svg>